<svg width="27" height="30" viewBox="0 0 27 30" fill="none" xmlns="http://www.w3.org/2000/svg">
<path d="M13.5 16.1093C17.127 16.1093 20.6054 17.5728 23.17 20.1778C25.1709 22.2101 26.4876 24.8074 26.9699 27.6005C27.1964 28.9123 26.1125 30 24.8013 30H2.19879C0.887562 30 -0.196394 28.9123 0.0300991 27.6005C0.512371 24.8074 1.82913 22.2101 3.82995 20.1778C6.3946 17.5728 9.87309 16.1093 13.5 16.1093Z" fill="white"/>
<path d="M13.5475 0C17.455 2.42621e-05 20.6227 3.21752 20.6227 7.1865C20.6227 11.1555 17.455 14.373 13.5475 14.373C9.64003 14.373 6.47238 11.1555 6.47238 7.1865C6.47238 3.2175 9.64003 0 13.5475 0Z" fill="white"/>
</svg>
