<svg width="31" height="24" viewBox="0 0 31 24" fill="none" xmlns="http://www.w3.org/2000/svg">
<path d="M26.2428 1.98947C24.267 1.06863 22.1482 0.390197 19.9329 0.00162999C19.8925 -0.00586923 19.8522 0.0128717 19.8314 0.0503545C19.5589 0.54262 19.2571 1.18482 19.0457 1.68959C16.663 1.32727 14.2925 1.32727 11.9587 1.68959C11.7473 1.1736 11.4345 0.54262 11.1607 0.0503545C11.14 0.0141223 11.0997 -0.00461862 11.0593 0.00162999C8.84522 0.388955 6.72643 1.06739 4.74937 1.98947C4.73226 1.99696 4.71759 2.00947 4.70785 2.0257C0.688964 8.12415 -0.411977 14.0727 0.128108 19.9475C0.130551 19.9762 0.146436 20.0037 0.168431 20.0212C2.81998 21.999 5.38846 23.1998 7.90924 23.9956C7.94958 24.0081 7.99232 23.9931 8.018 23.9594C8.61429 23.1323 9.14583 22.2602 9.60157 21.3431C9.62847 21.2894 9.6028 21.2257 9.54783 21.2044C8.70471 20.8796 7.9019 20.4835 7.12965 20.0337C7.06857 19.9975 7.06368 19.9087 7.11987 19.8663C7.28238 19.7426 7.44493 19.6139 7.60011 19.4839C7.62818 19.4602 7.6673 19.4552 7.70031 19.4702C12.7737 21.8229 18.2662 21.8229 23.2796 19.4702C23.3127 19.454 23.3518 19.459 23.3811 19.4827C23.5363 19.6126 23.6988 19.7426 23.8625 19.8663C23.9187 19.9087 23.9151 19.9975 23.854 20.0337C23.0817 20.4922 22.2789 20.8796 21.4346 21.2032C21.3796 21.2244 21.3552 21.2894 21.3821 21.3431C21.8476 22.2589 22.3791 23.131 22.9644 23.9582C22.9889 23.9931 23.0328 24.0081 23.0732 23.9956C25.6062 23.1998 28.1746 21.999 30.8262 20.0212C30.8494 20.0037 30.8641 19.9775 30.8665 19.9488C31.5129 13.1568 29.7839 7.25706 26.2831 2.02694C26.2746 2.00947 26.2599 1.99696 26.2428 1.98947ZM10.3592 16.3704C8.83177 16.3704 7.57321 14.946 7.57321 13.1968C7.57321 11.4476 8.80736 10.0233 10.3592 10.0233C11.9232 10.0233 13.1696 11.4601 13.1451 13.1968C13.1451 14.946 11.911 16.3704 10.3592 16.3704ZM20.6599 16.3704C19.1325 16.3704 17.8739 14.946 17.8739 13.1968C17.8739 11.4476 19.108 10.0233 20.6599 10.0233C22.2239 10.0233 23.4703 11.4601 23.4459 13.1968C23.4459 14.946 22.2239 16.3704 20.6599 16.3704Z" fill="white"/>
</svg>
