<svg width="221" height="221" viewBox="0 0 221 221" fill="none" xmlns="http://www.w3.org/2000/svg">
<path d="M21.6523 126.926C27.8374 126.926 32.8516 131.94 32.8516 138.125V188.148H82.875C89.0601 188.148 94.074 193.163 94.0742 199.348V209.801C94.0742 215.986 89.0602 221 82.875 221H11.1992L10.623 220.985C4.70568 220.685 5.71711e-05 215.793 0 209.801V138.125C0 131.94 5.01405 126.926 11.1992 126.926H21.6523ZM209.801 126.926C215.986 126.926 221 131.94 221 138.125V209.801C221 215.986 215.986 221 209.801 221H138.125C131.94 221 126.926 215.986 126.926 209.801V199.348C126.926 193.163 131.94 188.148 138.125 188.148H188.148V138.125C188.148 131.94 193.163 126.926 199.348 126.926H209.801ZM82.875 0C89.0602 7.73105e-07 94.0742 5.01405 94.0742 11.1992V21.6523C94.074 27.8374 89.0601 32.8516 82.875 32.8516H32.8516V82.875C32.8516 89.0601 27.8374 94.074 21.6523 94.0742H11.1992C5.01405 94.0742 7.73105e-07 89.0602 0 82.875V11.1992C5.65684e-05 5.01409 5.01409 5.69515e-05 11.1992 0H82.875ZM209.801 0C215.986 5.9013e-05 221 5.01409 221 11.1992V82.875C221 89.0602 215.986 94.0742 209.801 94.0742H199.348C193.163 94.074 188.148 89.0601 188.148 82.875V32.8516H138.125C131.94 32.8516 126.926 27.8374 126.926 21.6523V11.1992C126.926 5.01405 131.94 0 138.125 0H209.801Z" fill="white"/>
</svg>
