<svg width="111" height="44" viewBox="0 0 111 44" fill="none" xmlns="http://www.w3.org/2000/svg">
<path d="M0.553977 21.7159V17.8636C2.53125 17.8636 3.90057 17.4716 4.66193 16.6875C5.43466 15.9034 5.82102 14.6591 5.82102 12.9545V9.73295C5.82102 7.44886 6.15625 5.65341 6.8267 4.34659C7.50852 3.03977 8.43466 2.07954 9.60511 1.46591C10.7869 0.852272 12.1506 0.465908 13.696 0.306816C15.2415 0.136362 16.8835 0.0511351 18.6222 0.0511351V6.17045C17.2585 6.17045 16.2358 6.33523 15.554 6.66477C14.8835 6.99432 14.4347 7.49432 14.2074 8.16477C13.9801 8.83523 13.8665 9.68182 13.8665 10.7045V15.0682C13.8665 15.9318 13.6903 16.7614 13.3381 17.5568C12.9858 18.3523 12.3381 19.0625 11.3949 19.6875C10.4517 20.3125 9.10511 20.8068 7.35511 21.1705C5.61648 21.5341 3.34943 21.7159 0.553977 21.7159ZM18.6222 43.0227C16.8835 43.0227 15.2415 42.9375 13.696 42.767C12.1506 42.608 10.7869 42.2216 9.60511 41.608C8.43466 40.9943 7.50852 40.0341 6.8267 38.7273C6.15625 37.4205 5.82102 35.625 5.82102 33.3409V30.1364C5.82102 28.4205 5.43466 27.1761 4.66193 26.4034C3.90057 25.6193 2.53125 25.2273 0.553977 25.2273V21.358C3.34943 21.358 5.61648 21.5455 7.35511 21.9205C9.10511 22.2841 10.4517 22.7784 11.3949 23.4034C12.3381 24.017 12.9858 24.7216 13.3381 25.517C13.6903 26.3125 13.8665 27.142 13.8665 28.0057V32.3693C13.8665 33.392 13.9801 34.2386 14.2074 34.9091C14.4347 35.5795 14.8835 36.0795 15.554 36.4091C16.2358 36.7386 17.2585 36.9034 18.6222 36.9034V43.0227ZM0.553977 25.2273V17.8636H7.35511V25.2273H0.553977ZM29.7401 39H20.6719L32.4503 4.09091H43.6832L55.4616 39H46.3935L38.1946 12.8864H37.9219L29.7401 39ZM28.5298 25.2614H47.4844V31.6705H28.5298V25.2614Z" fill="white"/>
<path d="M89.267 16.7386H80.7443C80.6307 15.8636 80.3977 15.0739 80.0455 14.3693C79.6932 13.6648 79.2273 13.0625 78.6477 12.5625C78.0682 12.0625 77.3807 11.6818 76.5852 11.4205C75.8011 11.1477 74.9318 11.0114 73.9773 11.0114C72.2841 11.0114 70.8239 11.4261 69.5966 12.2557C68.3807 13.0852 67.4432 14.2841 66.7841 15.8523C66.1364 17.4205 65.8125 19.3182 65.8125 21.5455C65.8125 23.8636 66.142 25.8068 66.8011 27.375C67.4716 28.9318 68.4091 30.108 69.6136 30.9034C70.8295 31.6875 72.267 32.0795 73.9261 32.0795C74.858 32.0795 75.7045 31.9602 76.4659 31.7216C77.2386 31.483 77.9148 31.1364 78.4943 30.6818C79.0852 30.2159 79.5682 29.6534 79.9432 28.9943C80.3295 28.3239 80.5966 27.5682 80.7443 26.7273L89.267 26.7784C89.1193 28.3239 88.6705 29.8466 87.9205 31.3466C87.1818 32.8466 86.1648 34.2159 84.8693 35.4545C83.5739 36.6818 81.9943 37.6591 80.1307 38.3864C78.2784 39.1136 76.1534 39.4773 73.7557 39.4773C70.5966 39.4773 67.767 38.7841 65.267 37.3977C62.7784 36 60.8125 33.9659 59.3693 31.2955C57.9261 28.625 57.2045 25.375 57.2045 21.5455C57.2045 17.7045 57.9375 14.4489 59.4034 11.7784C60.8693 9.10795 62.8523 7.07955 65.3523 5.69318C67.8523 4.30682 70.6534 3.61364 73.7557 3.61364C75.8693 3.61364 77.8239 3.90909 79.6193 4.5C81.4148 5.07954 82.9943 5.93182 84.358 7.05682C85.7216 8.17045 86.8295 9.53977 87.6818 11.1648C88.5341 12.7898 89.0625 14.6477 89.267 16.7386ZM110.442 21.358V25.2273C108.476 25.2273 107.107 25.6193 106.334 26.4034C105.561 27.1761 105.175 28.4205 105.175 30.1364V33.3409C105.175 35.625 104.834 37.4205 104.152 38.7273C103.482 40.0341 102.555 40.9943 101.374 41.608C100.203 42.2216 98.8452 42.608 97.2997 42.767C95.7656 42.9375 94.1236 43.0227 92.3736 43.0227V36.9034C93.7372 36.9034 94.7543 36.7386 95.4247 36.4091C96.1065 36.0795 96.5611 35.5795 96.7884 34.9091C97.0156 34.2386 97.1293 33.392 97.1293 32.3693V28.0057C97.1293 27.142 97.3054 26.3125 97.6577 25.517C98.0099 24.7216 98.6577 24.017 99.6009 23.4034C100.544 22.7784 101.885 22.2841 103.624 21.9205C105.374 21.5455 107.646 21.358 110.442 21.358ZM92.3736 0.0511351C94.1236 0.0511351 95.7656 0.136362 97.2997 0.306816C98.8452 0.465908 100.203 0.852272 101.374 1.46591C102.555 2.07954 103.482 3.03977 104.152 4.34659C104.834 5.65341 105.175 7.44886 105.175 9.73295V12.9545C105.175 14.6591 105.561 15.9034 106.334 16.6875C107.107 17.4716 108.476 17.8636 110.442 17.8636V21.7159C107.646 21.7159 105.374 21.5341 103.624 21.1705C101.885 20.8068 100.544 20.3125 99.6009 19.6875C98.6577 19.0625 98.0099 18.3523 97.6577 17.5568C97.3054 16.7614 97.1293 15.9318 97.1293 15.0682V10.7045C97.1293 9.68182 97.0156 8.83523 96.7884 8.16477C96.5611 7.49432 96.1065 6.99432 95.4247 6.66477C94.7543 6.33523 93.7372 6.17045 92.3736 6.17045V0.0511351ZM110.442 17.8636V25.2273H103.641V17.8636H110.442Z" fill="#EF233C"/>
</svg>
