<svg width="191" height="191" viewBox="0 0 191 191" fill="none" xmlns="http://www.w3.org/2000/svg">
<path d="M149.466 4.60659C155.324 -1.25127 164.821 -1.25126 170.679 4.6066L186.342 20.2695C192.2 26.1273 192.2 35.6248 186.342 41.4827L41.4826 186.342C35.6247 192.2 26.1273 192.2 20.2694 186.342L4.60653 170.679C-1.25133 164.821 -1.25133 155.324 4.60653 149.466L149.466 4.60659Z" fill="white"/>
<path d="M4.60656 41.4827C-1.2513 35.6248 -1.25129 26.1273 4.60657 20.2695L20.2694 4.6066C26.1273 -1.25126 35.6248 -1.25126 41.4826 4.6066L186.342 149.466C192.2 155.324 192.2 164.821 186.342 170.679L170.679 186.342C164.821 192.2 155.324 192.2 149.466 186.342L4.60656 41.4827Z" fill="white"/>
</svg>
