<svg width="29" height="30" viewBox="0 0 29 30" fill="none" xmlns="http://www.w3.org/2000/svg">
<path d="M18.1187 26.045C18.3924 26.045 18.6174 26.2617 18.5842 26.5261C18.5396 26.8802 18.4458 27.2276 18.3049 27.5586C18.1007 28.0384 17.8012 28.4744 17.4238 28.8416C17.0464 29.2089 16.5982 29.5002 16.1051 29.6989C15.6119 29.8977 15.0834 30 14.5496 30C14.0158 30 13.4872 29.8977 12.994 29.6989C12.5009 29.5002 12.0528 29.2088 11.6754 28.8416C11.298 28.4744 10.9985 28.0384 10.7943 27.5586C10.6534 27.2276 10.5596 26.8802 10.515 26.5261C10.4818 26.2617 10.7068 26.045 10.9805 26.045H18.1187Z" fill="white"/>
<path d="M14.5496 0C16.0827 9.20484e-06 17.3255 1.16608 17.3255 2.6045C17.3255 2.74387 17.3136 2.88065 17.2912 3.01409C17.5725 3.09855 17.8502 3.19572 18.1232 3.30574C19.2719 3.7687 20.3156 4.4473 21.1948 5.30273C22.074 6.15817 22.7714 7.17372 23.2472 8.29139C23.7041 9.36448 23.9479 10.5115 23.9666 11.672H23.968V19.6174L28.3501 22.5359C29.5565 23.3394 28.9721 25.1768 27.5101 25.1768H1.48986C0.0279195 25.1768 -0.556497 23.3394 0.649877 22.5359L5.0321 19.6173V11.672H5.03336C5.0521 10.5115 5.29599 9.36448 5.75281 8.29139C6.22861 7.17373 6.92598 6.15816 7.80514 5.30273C8.6843 4.44731 9.72806 3.7687 10.8768 3.30574C11.1803 3.18341 11.4896 3.07691 11.8034 2.98621C11.7839 2.86162 11.7737 2.73418 11.7737 2.6045C11.7737 1.16608 13.0165 0 14.5496 0Z" fill="white"/>
</svg>
