<svg width="34" height="34" viewBox="0 0 34 34" fill="none" xmlns="http://www.w3.org/2000/svg">
<path fill-rule="evenodd" clip-rule="evenodd" d="M2.39001 2.39001C0 4.78002 0 8.62665 0 16.32V17.68C0 25.3733 0 29.22 2.39001 31.61C4.78002 34 8.62665 34 16.32 34H17.68C25.3733 34 29.22 34 31.61 31.61C34 29.22 34 25.3733 34 17.68V16.32C34 8.62665 34 4.78002 31.61 2.39001C29.22 0 25.3733 0 17.68 0H16.32C8.62665 0 4.78002 0 2.39001 2.39001ZM5.73758 10.3417C5.92175 19.1817 10.3417 24.4942 18.0909 24.4942H18.5301V19.4367C21.3776 19.7201 23.5308 21.8026 24.395 24.4942H28.4184C27.3134 20.4709 24.4091 18.2467 22.5958 17.3967C24.4091 16.3484 26.9591 13.7984 27.5683 10.3417H23.9132C23.1199 13.1467 20.7685 15.6967 18.5301 15.9376V10.3417H14.875V20.1451C12.6083 19.5784 9.74674 16.8301 9.61924 10.3417H5.73758Z" fill="white"/>
</svg>
